<?xml version="1.0" encoding="UTF-8" standalone="no"?>
<svg width="300" height="200" viewBox="0 0 300 200" version="1.1" xmlns="http://www.w3.org/2000/svg" xmlns:xlink="http://www.w3.org/1999/xlink">
  <rect width="300" height="200" fill="#f0f0f0"/>
  <g transform="translate(95, 75)">
    <path d="M54.5,38 C56.709139,38 58.5,36.209139 58.5,34 C58.5,31.790861 56.709139,30 54.5,30 C52.290861,30 50.5,31.790861 50.5,34 C50.5,36.209139 52.290861,38 54.5,38 Z" fill="#ff6b00"/>
    <path d="M74.5,38 C76.709139,38 78.5,36.209139 78.5,34 C78.5,31.790861 76.709139,30 74.5,30 C72.290861,30 70.5,31.790861 70.5,34 C70.5,36.209139 72.290861,38 74.5,38 Z" fill="#ff6b00"/>
    <path d="M92.8830467,47.8367937 C88.7635615,42.2399163 82.5546335,39 75.0028193,39 C67.4530115,39 61.2450953,42.2378758 57.1256102,47.8327128 C55.9912075,49.3308772 57.1085841,51.5 59.0027998,51.5 L91.0035913,51.5 C92.9008133,51.5 94.0211842,49.3280129 92.8830467,47.8367937 Z" fill="#ff6b00"/>
    
    <circle cx="47" cy="30" r="5" fill="#ff6b00"/>
    <circle cx="82" cy="30" r="5" fill="#ff6b00"/>
    <path d="M110,50 C110,77.6142375 87.6142375,100 60,100 C32.3857625,100 10,77.6142375 10,50 C10,22.3857625 32.3857625,0 60,0 C87.6142375,0 110,22.3857625 110,50 Z" stroke="#ff6b00" stroke-width="4" fill="none"/>
  </g>
  <text x="150" y="155" font-family="Arial" font-size="16" text-anchor="middle" fill="#666666">Petrosia</text>
</svg>