<?xml version="1.0" encoding="UTF-8" standalone="no"?>
<svg
   xmlns="http://www.w3.org/2000/svg"
   viewBox="0 0 100 100"
   width="100" 
   height="100"
   fill="#ff6b00"
>
  <circle cx="50" cy="50" r="50" fill="#ff6b00" />
  <path d="M25 25c-2 6 0 12 5 14s10-2 12-8-0-12-5-14-10 2-12 8zM20 40c-2 4-1 10 3 12s10 0 12-4 1-10-3-12-10 0-12 4zM80 40c2 4 1 10-3 12s-10 0-12-4-1-10 3-12 10 0 12 4zM76 25c2 6 0 12-5 14s-10-2-12-8 0-12 5-14 10 2 12 8zM50 65c-10 0-25 5-35 25h70c-10-20-25-25-35-25z" fill="white" />
</svg>